<svg xmlns="http://www.w3.org/2000/svg" viewBox="0 0 820 360" width="820" height="360">
  <defs>
    <linearGradient id="capBg" x1="0%" y1="0%" x2="0%" y2="100%">
      <stop offset="0%" style="stop-color:#0d1117;stop-opacity:1"/>
      <stop offset="100%" style="stop-color:#1a1a2e;stop-opacity:1"/>
    </linearGradient>
  </defs>

  <!-- Background -->
  <rect width="820" height="360" fill="url(#capBg)" rx="12"/>
  <text x="410" y="32" font-family="'Segoe UI', Arial, sans-serif" font-size="14" fill="#9CA3AF"
        text-anchor="middle" font-weight="bold">Capability Overview</text>

  <!-- Column headers -->
  <text x="200" y="60" font-family="Arial" font-size="10" fill="#6B7280" text-anchor="middle">FEATURE</text>
  <text x="570" y="60" font-family="Arial" font-size="10" fill="#6B7280" text-anchor="middle">CAPABILITY BAR</text>
  <text x="770" y="60" font-family="Arial" font-size="10" fill="#6B7280" text-anchor="middle">SCORE</text>
  <text x="760" y="60" font-family="Arial" font-size="10" fill="#6B7280" text-anchor="end">STATUS</text>

  <!-- ── Row 1: EMI Accuracy ── -->
  <!-- Icon circle -->
  <circle cx="44" cy="96" r="14" fill="#F59E0B" opacity="0.18"/>
  <text x="44" y="101" font-family="Arial" font-size="14" fill="#F59E0B" text-anchor="middle">🧮</text>
  <text x="66" y="93" font-family="Arial" font-size="12" fill="#E5E7EB" font-weight="bold">EMI Accuracy</text>
  <text x="66" y="108" font-family="Arial" font-size="10" fill="#9CA3AF">Standard amortisation · 0%-rate edge case</text>
  <!-- Bar background -->
  <rect x="340" y="84" width="400" height="18" rx="4" fill="#1F2937"/>
  <rect x="340" y="84" width="400" height="18" rx="4" fill="#F59E0B" opacity="0.88"/>
  <text x="748" y="97" font-family="Arial" font-size="11" fill="#F59E0B" text-anchor="end">100%</text>
  <!-- Status pill -->
  <rect x="762" y="83" width="48" height="18" rx="9" fill="#10B981" opacity="0.82"/>
  <text x="786" y="96" font-family="Arial" font-size="9" fill="#fff" text-anchor="middle" font-weight="bold">LIVE</text>

  <!-- ── Row 2: Lump-Sum Simulation ── -->
  <circle cx="44" cy="148" r="14" fill="#2563EB" opacity="0.18"/>
  <text x="44" y="153" font-family="Arial" font-size="14" fill="#2563EB" text-anchor="middle">💰</text>
  <text x="66" y="145" font-family="Arial" font-size="12" fill="#E5E7EB" font-weight="bold">Lump-Sum Prepayment</text>
  <text x="66" y="160" font-family="Arial" font-size="10" fill="#9CA3AF">Mid-term paydown · revised EMI · savings calc</text>
  <rect x="340" y="136" width="400" height="18" rx="4" fill="#1F2937"/>
  <rect x="340" y="136" width="380" height="18" rx="4" fill="#2563EB" opacity="0.88"/>
  <text x="748" y="149" font-family="Arial" font-size="11" fill="#2563EB" text-anchor="end">95%</text>
  <rect x="762" y="135" width="48" height="18" rx="9" fill="#10B981" opacity="0.82"/>
  <text x="786" y="148" font-family="Arial" font-size="9" fill="#fff" text-anchor="middle" font-weight="bold">LIVE</text>

  <!-- ── Row 3: Visualization ── -->
  <circle cx="44" cy="200" r="14" fill="#10B981" opacity="0.18"/>
  <text x="44" y="205" font-family="Arial" font-size="14" fill="#10B981" text-anchor="middle">📊</text>
  <text x="66" y="197" font-family="Arial" font-size="12" fill="#E5E7EB" font-weight="bold">Interactive Charts</text>
  <text x="66" y="212" font-family="Arial" font-size="10" fill="#9CA3AF">3 matplotlib charts embedded in Qt · dark theme</text>
  <rect x="340" y="188" width="400" height="18" rx="4" fill="#1F2937"/>
  <rect x="340" y="188" width="360" height="18" rx="4" fill="#10B981" opacity="0.88"/>
  <text x="748" y="201" font-family="Arial" font-size="11" fill="#10B981" text-anchor="end">90%</text>
  <rect x="762" y="187" width="48" height="18" rx="9" fill="#10B981" opacity="0.82"/>
  <text x="786" y="200" font-family="Arial" font-size="9" fill="#fff" text-anchor="middle" font-weight="bold">LIVE</text>

  <!-- ── Row 4: Input Safety ── -->
  <circle cx="44" cy="252" r="14" fill="#F59E0B" opacity="0.18"/>
  <text x="44" y="257" font-family="Arial" font-size="14" fill="#F59E0B" text-anchor="middle">✅</text>
  <text x="66" y="249" font-family="Arial" font-size="12" fill="#E5E7EB" font-weight="bold">Input Validation &amp; Safety</text>
  <text x="66" y="264" font-family="Arial" font-size="10" fill="#9CA3AF">QValidator on entry · runtime boundary checks · no-crash guarantee</text>
  <rect x="340" y="240" width="400" height="18" rx="4" fill="#1F2937"/>
  <rect x="340" y="240" width="400" height="18" rx="4" fill="#F59E0B" opacity="0.88"/>
  <text x="748" y="253" font-family="Arial" font-size="11" fill="#F59E0B" text-anchor="end">100%</text>
  <rect x="762" y="239" width="48" height="18" rx="9" fill="#10B981" opacity="0.82"/>
  <text x="786" y="252" font-family="Arial" font-size="9" fill="#fff" text-anchor="middle" font-weight="bold">LIVE</text>

  <!-- ── Row 5: Dark Theme UX ── -->
  <circle cx="44" cy="304" r="14" fill="#2563EB" opacity="0.18"/>
  <text x="44" y="309" font-family="Arial" font-size="14" fill="#2563EB" text-anchor="middle">🌑</text>
  <text x="66" y="301" font-family="Arial" font-size="12" fill="#E5E7EB" font-weight="bold">Dark Theme UX</text>
  <text x="66" y="316" font-family="Arial" font-size="10" fill="#9CA3AF">Full QPalette + stylesheet · consistent across Qt + matplotlib</text>
  <rect x="340" y="292" width="400" height="18" rx="4" fill="#1F2937"/>
  <rect x="340" y="292" width="400" height="18" rx="4" fill="#2563EB" opacity="0.88"/>
  <text x="748" y="305" font-family="Arial" font-size="11" fill="#2563EB" text-anchor="end">100%</text>
  <rect x="762" y="291" width="48" height="18" rx="9" fill="#10B981" opacity="0.82"/>
  <text x="786" y="304" font-family="Arial" font-size="9" fill="#fff" text-anchor="middle" font-weight="bold">LIVE</text>

  <!-- Footer note -->
  <text x="410" y="346" font-family="Arial" font-size="10" fill="#6B7280" text-anchor="middle">
    All capabilities reflect actual implemented functionality in pyLoan v1.1.0
  </text>
</svg>
